<svg xmlns="http://www.w3.org/2000/svg" xmlns:xlink="http://www.w3.org/1999/xlink" version="1.1" id="Layer_1" x="0px" y="0px" width="100px" height="100px" viewBox="0 0 100 100" enable-background="new 0 0 100 100" xml:space="preserve">
<path fill-rule="evenodd" clip-rule="evenodd" d="M77.896,40.169l-1.757-1.496l-0.224-0.202c-0.397-0.358-0.819-0.71-1.251-1.056  L33.404,2.253c-3.188-3.08-8.27-2.99-11.35,0.197l-1.1,1.14c-3.08,3.189-2.99,8.271,0.198,11.35l28.832,34.609L24.308,85.542  c-2.967,3.295-2.701,8.37,0.594,11.337l1.177,1.06c3.294,2.967,8.369,2.699,11.335-0.594l38.743-39.401  c0.163-0.142,0.336-0.276,0.483-0.429l1.529-1.583C82.446,51.503,82.322,44.445,77.896,40.169z"/>
</svg>